<?xml version="1.0" encoding="utf-8"?>
<!-- Generator: Adobe Illustrator 26.3.1, SVG Export Plug-In . SVG Version: 6.00 Build 0)  -->
<svg version="1.1" id="Layer_1" xmlns="http://www.w3.org/2000/svg" xmlns:xlink="http://www.w3.org/1999/xlink" x="0px" y="0px"
	 viewBox="0 0 66.92 66.92" style="enable-background:new 0 0 66.92 66.92;" xml:space="preserve">
<style type="text/css">
	.st0{fill:none;}
	.st1{fill:#FFCD05;}
	.st2{fill:#EE3578;}
	.st3{fill:#00AA88;}
</style>
<g>
	<rect class="st0" width="66.92" height="66.92"/>
	<path class="st1" d="M54.17,62.4H12.76c-4.55,0-8.24-3.69-8.24-8.24V12.76c0-4.55,3.69-8.24,8.24-8.24h41.41
		c4.55,0,8.24,3.69,8.24,8.24v41.41C62.4,58.71,58.71,62.4,54.17,62.4z"/>
	<g>
		<g>
			<path class="st2" d="M18.08,54.69V20.02h6.21l23.21,27.64V20.02h5.25v34.67h-6.21L23.29,27v27.69H18.08z"/>
		</g>
		<g>
			<path class="st3" d="M14.27,49.64V14.96h28.36c1.16,0,2.22,0.28,3.18,0.84c0.96,0.56,1.72,1.32,2.29,2.26
				c0.56,0.95,0.84,2,0.84,3.15v22.15c0,1.16-0.28,2.21-0.84,3.15c-0.56,0.95-1.32,1.7-2.29,2.26c-0.96,0.56-2.02,0.84-3.18,0.84
				H14.27z M20.63,44.43h21.91c0.32,0,0.59-0.12,0.82-0.36c0.22-0.24,0.34-0.52,0.34-0.84V21.37c0-0.32-0.11-0.6-0.34-0.84
				c-0.22-0.24-0.5-0.36-0.82-0.36H20.63c-0.32,0-0.59,0.12-0.82,0.36c-0.23,0.24-0.34,0.52-0.34,0.84v21.86
				c0,0.32,0.11,0.6,0.34,0.84C20.03,44.31,20.3,44.43,20.63,44.43z"/>
		</g>
	</g>
</g>
<g>
</g>
<g>
</g>
<g>
</g>
<g>
</g>
<g>
</g>
<g>
</g>
</svg>
